<?xml version="1.0" standalone="no"?>
<!DOCTYPE svg PUBLIC "-//W3C//DTD SVG 20010904//EN"
 "http://www.w3.org/TR/2001/REC-SVG-20010904/DTD/svg10.dtd">
<svg version="1.0" xmlns="http://www.w3.org/2000/svg"
 width="253.000000pt" height="259.000000pt" viewBox="0 0 253.000000 259.000000"
 preserveAspectRatio="xMidYMid meet">

<g transform="translate(0.000000,259.000000) scale(0.100000,-0.100000)"
fill="#000000" stroke="none">
<path d="M1950 2395 c0 -2 -11 -34 -25 -70 -13 -36 -23 -65 -21 -65 2 0 25 25
52 56 45 54 47 57 29 70 -19 14 -35 18 -35 9z"/>
<path d="M1395 2351 c-27 -11 -111 -45 -185 -76 -120 -51 -161 -62 -376 -105
-132 -27 -256 -55 -276 -63 -39 -16 -97 -70 -115 -108 -7 -13 -26 -59 -42
-102 -48 -122 -44 -158 34 -352 56 -139 70 -187 104 -361 43 -218 60 -263 117
-314 86 -75 122 -77 423 -19 112 22 205 38 207 36 4 -4 -289 -123 -321 -130
-18 -4 -17 -5 3 -6 19 -1 230 80 377 144 17 7 129 32 250 55 121 22 238 48
260 56 62 22 122 90 152 170 68 188 68 186 -21 409 -56 140 -69 185 -101 355
-49 257 -75 306 -191 357 -51 22 -89 19 -334 -28 -112 -21 -209 -39 -215 -39
-5 1 61 30 148 65 176 73 226 80 299 45 23 -11 44 -18 46 -15 3 3 -15 14 -39
25 -56 25 -138 25 -204 1z m287 -80 c12 -15 29 -37 36 -47 7 -11 5 -4 -4 14
-21 46 -11 51 34 16 69 -55 84 -102 171 -555 45 -228 81 -431 81 -450 0 -27
-8 -43 -35 -69 -19 -18 -32 -36 -30 -39 3 -2 19 9 36 25 l31 29 -16 -38 c-8
-21 -25 -51 -36 -68 -46 -64 -74 -72 -594 -173 -269 -53 -513 -96 -543 -96
-51 0 -54 2 -83 42 -16 22 -30 37 -30 32 0 -5 7 -20 16 -32 21 -30 5 -28 -43
7 -22 16 -50 49 -61 73 -20 39 -192 886 -192 940 0 11 16 35 35 54 19 18 35
36 35 40 0 4 -14 -5 -30 -21 -35 -33 -38 -21 -10 34 20 40 63 82 109 105 14 8
159 40 321 71 162 32 381 75 485 95 105 21 213 38 242 39 45 1 54 -3 75 -28z
m-1238 -595 c21 -103 35 -190 33 -192 -2 -2 -24 48 -50 111 -50 121 -58 180
-36 244 6 18 13 31 14 29 2 -2 19 -88 39 -192z m1551 -146 c54 -129 63 -208
32 -265 l-16 -30 -1 26 c0 15 -16 107 -35 205 -19 99 -35 181 -35 183 0 12 12
-14 55 -119z"/>
<path d="M1333 1933 l-9 -38 -71 -1 c-131 -1 -221 -69 -230 -172 -6 -68 7 -82
46 -49 35 29 100 42 161 32 32 -5 40 -11 36 -23 -17 -58 -18 -72 -2 -78 20 -8
230 116 234 138 2 9 -25 64 -59 122 -68 118 -91 133 -106 69z"/>
<path d="M1468 1612 c5 -54 -11 -101 -52 -150 l-28 -32 -35 30 c-54 48 -63 33
-63 -114 0 -66 4 -127 8 -134 12 -18 273 -13 279 5 3 7 -10 26 -27 42 l-32 29
27 36 c88 116 69 268 -42 325 -36 18 -40 13 -35 -37z"/>
<path d="M923 1638 c-5 -7 -36 -59 -68 -116 -65 -115 -64 -132 3 -115 l38 10
28 -54 c34 -64 78 -105 141 -129 41 -15 53 -16 94 -5 41 11 91 44 91 61 0 3
-15 12 -34 18 -49 18 -84 48 -106 93 -29 55 -26 67 20 79 72 20 66 30 -68 109
-108 64 -123 69 -139 49z"/>
<path d="M2103 2228 c-38 -43 -38 -50 3 -33 47 19 46 18 38 39 -8 22 -17 20
-41 -6z"/>
<path d="M310 2092 c0 -13 11 -22 35 -29 40 -13 38 -4 -5 27 -29 20 -30 21
-30 2z"/>
<path d="M2016 1828 c-19 -11 -21 -49 -4 -66 30 -30 75 0 64 42 -7 27 -35 38
-60 24z m51 -24 c8 -21 -19 -46 -40 -38 -17 6 -23 35 -10 47 12 13 44 7 50 -9z"/>
<path d="M330 1055 l0 -25 40 20 c22 11 40 23 40 25 0 3 -18 5 -40 5 -36 0
-40 -2 -40 -25z"/>
<path d="M2085 972 c41 -33 52 -37 58 -26 13 23 2 40 -30 47 -15 4 -39 10 -53
13 -19 5 -13 -3 25 -34z"/>
<path d="M383 912 c-54 -27 -63 -41 -40 -60 10 -9 25 0 62 38 56 57 52 60 -22
22z"/>
<path d="M780 795 c0 -14 89 -44 125 -44 l40 1 -47 8 c-26 5 -62 15 -79 24
-35 18 -39 19 -39 11z"/>
<path d="M1702 493 c2 -22 8 -28 28 -28 20 0 26 6 28 28 3 24 0 27 -28 27 -28
0 -31 -3 -28 -27z"/>
<path d="M1340 490 c0 -13 7 -20 20 -20 19 0 20 -7 20 -95 0 -76 -3 -97 -15
-101 -8 -4 -15 -15 -15 -25 0 -16 8 -19 55 -19 48 0 55 2 55 20 0 11 -7 20
-15 20 -8 0 -15 4 -15 9 0 10 29 36 34 30 1 -2 15 -21 30 -41 21 -29 36 -38
57 -38 39 0 37 19 -6 64 -19 21 -35 42 -35 48 0 13 41 47 58 48 6 0 12 9 12
20 0 18 -7 20 -54 20 -57 0 -76 -11 -56 -35 8 -10 6 -17 -12 -29 l-23 -16 -3
80 -3 80 -44 0 c-38 0 -45 -3 -45 -20z"/>
<path d="M550 466 c0 -7 9 -16 20 -19 18 -5 20 -14 20 -91 0 -79 -2 -86 -20
-86 -13 0 -20 -7 -20 -20 0 -18 7 -20 60 -20 53 0 60 2 60 20 0 11 -7 20 -15
20 -10 0 -15 10 -15 31 0 25 3 30 21 27 13 -2 30 -18 40 -38 22 -40 45 -60 71
-60 11 0 18 7 18 20 0 11 -4 20 -10 20 -5 0 -20 16 -33 37 l-23 36 24 24 c28
28 24 67 -10 96 -27 22 -188 26 -188 3z m160 -30 c0 -2 3 -11 6 -19 7 -20 -22
-47 -51 -47 -23 0 -37 30 -27 58 3 11 72 18 72 8z"/>
<path d="M810 410 c0 -11 7 -20 15 -20 12 0 15 -18 15 -100 0 -82 -3 -100 -15
-100 -8 0 -15 -9 -15 -20 0 -18 7 -20 65 -20 58 0 65 2 65 20 0 15 -7 20 -25
20 -20 0 -25 5 -25 24 0 22 3 23 49 18 43 -4 53 -1 75 21 37 37 37 117 1 152
-26 27 -72 33 -105 15 -13 -7 -21 -7 -25 0 -3 5 -22 10 -41 10 -27 0 -34 -4
-34 -20z m170 -55 c11 -28 -1 -69 -22 -77 -42 -16 -81 39 -58 81 16 31 68 29
80 -4z"/>
<path d="M1133 415 c-50 -35 -50 -135 0 -170 27 -19 126 -20 151 -2 27 19 11
49 -22 40 -45 -11 -82 -7 -100 10 -15 16 -11 17 61 17 l77 0 0 29 c0 17 -11
42 -26 60 -22 27 -33 31 -73 31 -25 0 -56 -7 -68 -15z m105 -52 c2 -9 -10 -13
-43 -13 -42 0 -46 2 -35 16 15 18 71 15 78 -3z"/>
<path d="M1645 420 c-9 -15 7 -31 34 -33 19 -1 21 -7 21 -59 l0 -58 -35 0
c-28 0 -35 -4 -35 -20 0 -19 7 -20 100 -20 93 0 100 1 100 20 0 16 -7 20 -35
20 l-34 0 -3 78 -3 77 -52 3 c-30 2 -54 -2 -58 -8z"/>
<path d="M1912 421 c-8 -5 -12 -17 -10 -27 3 -16 11 -19 59 -16 41 3 58 0 62
-10 4 -11 -7 -14 -50 -14 -46 1 -58 -3 -74 -23 -23 -28 -19 -68 8 -88 20 -15
87 -17 113 -3 13 7 21 7 25 0 3 -5 19 -10 36 -10 22 0 29 5 29 19 0 10 -7 21
-15 25 -11 4 -15 21 -15 61 0 76 -20 95 -97 95 -32 0 -64 -4 -71 -9z m112
-120 c6 -9 -36 -31 -59 -31 -17 0 -28 17 -20 30 8 12 72 13 79 1z"/>
</g>
</svg>
